<?xml version="1.0" encoding="UTF-8" standalone="no"?><!DOCTYPE svg PUBLIC "-//W3C//DTD SVG 1.1//EN" "http://www.w3.org/Graphics/SVG/1.1/DTD/svg11.dtd"><svg width="100%" height="100%" viewBox="0 0 5225 5225" version="1.1" xmlns="http://www.w3.org/2000/svg" xmlns:xlink="http://www.w3.org/1999/xlink" xml:space="preserve" xmlns:serif="http://www.serif.com/" style="fill-rule:evenodd;clip-rule:evenodd;stroke-linejoin:round;stroke-miterlimit:2;"><g><path d="M7.654,0l5217.341,0c5.347,13.907 0,14.512 0,186.243l0,5038.752c-10.962,5.902 -11.928,0 -155.622,0l-5069.373,-0c-5.241,-9.732 0,-22.108 0,-33.161l0,-5191.833c1.005,-2.345 6.649,2.345 7.654,0Z" style="fill:#fefdfe;"/><path d="M2196.217,888.5c676.632,-146.401 1118.818,97.657 1184.793,122.778c96.196,36.628 382.814,-98.401 525.67,-242.643c42.624,-43.038 101.977,-14.819 104.467,35.15c14.406,289.102 -95.6,417.796 -154.422,476.204c-12.155,12.07 0.586,13.636 52.815,96.15c137.61,217.401 245.51,592.764 78.188,999.131c-9.292,22.568 33.712,48.669 64.494,148.467c122.096,395.854 -38.031,1066.831 -445.075,1415.363c-226.891,194.276 -352.247,199.132 -390.581,221.224c-14.073,8.11 14.262,159.71 -55.523,158.145c-57.763,-1.296 -31.704,-69.806 -30.059,-101.2c6.349,-121.124 -15.222,-128.829 -46.501,-132.688c-109.175,-13.468 -9.653,200.639 -91.68,210.527c-58.826,7.091 -42.013,-76.729 -44.472,-164.721c-1.246,-44.596 -58.675,-60.587 -88.354,-30.492c-26.211,26.578 -9.924,151.583 -8.376,157.665c19.489,76.551 -54.564,68.798 -69.236,41.942c-22.891,-41.901 -7.002,-110.615 -24.343,-113.495c-1.338,-0.222 -296.599,-0.137 -301.255,0.1c-19.545,0.991 10.848,139.581 -60.986,132.078c-53.073,-5.543 -26.968,-63.236 -25.382,-100.924c4.332,-102.907 -3.623,-127.461 -46.185,-132.782c-109.423,-13.679 -9.722,201.401 -91.648,210.907c-56.414,6.545 -43.912,-72.274 -44.316,-154.691c-0.298,-60.934 -54.764,-60.156 -73.73,-52.029c-37.001,15.854 -30.642,65.829 -30.673,67.34c-2.575,124.428 29.478,141.689 -14.103,159.807c-79.023,32.852 -61.962,-148.38 -67.545,-154.215c-12.096,-12.642 -457.444,-101.889 -731.154,-667.92c-138.825,-287.091 -244.377,-826.578 -41.278,-1104.911c7.735,-10.6 -18.359,-47.306 -43.59,-141.056c-146.768,-545.326 148.211,-900.564 182.301,-950.09c19.553,-28.406 -174.254,-101.039 -162.671,-478.693c2.883,-94.006 79.771,-74.372 102.204,-55.162c31.889,27.305 252.396,216.118 460.374,251.884c100.193,17.23 91.545,-47.903 427.829,-127.149Z" style="fill:#030302;"/><path d="M2758.137,929.196c547.373,56.56 539.748,190.321 693.477,167.918c218.916,-31.903 435.728,-200.69 464.495,-227.239c5.193,-4.792 15.891,-14.862 14.696,5.224c-3.064,51.521 -1.192,261.651 -181.238,390.036c-33.817,24.114 49.314,43.267 153.791,272.117c155.506,340.625 91.283,770.161 -101.758,978.655c-150.986,163.073 -533.883,385.794 -454.53,1007.147c33.564,262.814 152.121,399.736 138.278,411.386c-64.178,54.014 -274.159,157.999 -288.731,140.06c-2.682,-3.302 -27.754,-56.11 -91.595,-67.37c-79.914,-14.095 -105.027,39.002 -126.028,24.119c-63.486,-44.988 -164.194,-40.159 -203.174,57.507c-9.657,24.196 -17.139,15.044 -43.402,15.035c-280.335,-0.097 -281.615,1.053 -286.051,-3.64c-2.403,-2.542 -18.161,-72.234 -91.823,-90.979c-65.221,-16.597 -110.179,17.569 -117.83,23.384c-18.21,13.839 -55.248,-47.627 -142.629,-21.23c-71.977,21.744 -52.948,77.237 -100.629,60.513c-21.653,-7.595 -143.49,-50.329 -254.716,-131.87c-20.847,-15.283 8.803,-31.246 58.447,-146.828c84.462,-196.65 125.044,-520.651 25.09,-769.1c-150.615,-374.374 -405.5,-413.72 -518.736,-684.461c-104.922,-250.861 -113.325,-590.282 52.634,-876.834c90.581,-156.401 147.061,-178.382 119.253,-197.435c-189.313,-129.714 -184.022,-331.99 -189.677,-400.23c-1.74,-20.999 21.561,7.832 77.656,47.809c85.613,61.014 348.818,225.613 501.087,175.007c88.456,-29.398 368.74,-194.324 893.644,-158.699Z" style="fill:#fdfdfd;"/><path d="M1796.703,3441.527c-10.919,110.05 -23.067,236.094 -118.316,409.608c-1.131,2.06 -13.009,23.698 -17.484,23.603c-12.476,-0.264 -396.686,-311.268 -457.137,-933.372c-27.93,-287.428 56.854,-480.166 73.823,-472.232c20.609,9.636 -3.536,33.94 192.465,209.363c318.406,284.978 339.663,531.58 326.649,763.03Z" style="fill:#fdfdfd;"/><path d="M3433.782,3176.78c38.888,-159.901 113.845,-321.764 309.725,-494.525c197.152,-173.883 172.993,-198.55 193.689,-207.96c13.625,-6.195 60.625,123.923 69.142,248.039c48.034,700.012 -419.282,1138.13 -448.182,1151.071c-16.688,7.473 -92.323,-167.017 -114.038,-268.997c-53.653,-251.975 -12.893,-415.228 -10.335,-427.628Z" style="fill:#fdfdfd;"/><path d="M1808.599,2474.296c-44.65,-5.839 -161.61,-16.231 -278.209,-116.788c-145.798,-125.738 -172.684,-329.184 -165.539,-441.509c31.601,-496.756 445.972,-561.732 678.411,-493.842c445.419,130.096 375.005,761.5 122.895,795.691c-106.861,14.492 -123.275,-51.523 -135.577,-39.156c-143.18,143.942 -358.513,62.221 -409.15,-84.581c-82.511,-239.208 116.451,-481.029 339.407,-379.849c49.482,22.455 65.321,71.373 66.057,33.213c0.731,-37.859 51.868,-48.338 71.449,-19.406c13.339,19.709 3.286,297.703 6.797,366.507c3.363,65.913 66.445,42.469 85.372,29.126c156.732,-110.492 156.912,-620.92 -284.688,-641.93c-331.208,-15.758 -449.208,247.231 -457.49,413.91c-27.083,545.003 472.457,570.254 711.923,427.401c63.564,-37.919 91.507,35.618 45.42,65.697c-163.24,106.539 -364.715,88.424 -397.079,85.514Z" style="fill:#030302;"/><path d="M3411.266,2474.085c-703.989,63.513 -728.885,-799.867 -337.93,-1008.841c317.717,-169.827 780.446,-13.359 749.386,455.742c-12.764,192.781 -149.225,349.107 -289.557,286.574c-23.706,-10.563 -35.49,-36.87 -43.816,-29.179c-44.126,40.76 -41.935,45.611 -99.056,62.965c-179.456,54.52 -388.326,-90.172 -313.986,-360.506c58.317,-212.066 312.483,-231.383 394.651,-126.47c19.821,25.308 0.912,-30.636 37.609,-40.717c63.838,-17.536 53.452,60.763 53.129,135.999c-1.153,268.305 -2.726,279.617 27.294,287.858c133.926,36.767 276.929,-410.9 -21.103,-596.851c-221.201,-138.014 -687.398,-56.926 -663.036,441.733c18.138,371.269 388.012,524.559 720.21,336.189c48.462,-27.48 88.053,39.104 39.527,69.633c-122.427,77.021 -248.082,85.131 -253.322,85.869Z" style="fill:#030302;"/><path d="M3324.331,1770.324c171.264,13.935 157.86,128.436 156.828,247.711c-1.291,149.054 -149.264,176.568 -237.374,140.541c-138.172,-56.498 -149.504,-372.315 80.546,-388.252Z" style="fill:#fbfbfb;"/><path d="M1864.943,1770.867c180.452,6.366 159.677,160.444 158.491,252.294c-2.659,205.916 -340.45,203.933 -334.736,-35.743c4.894,-205.277 140.805,-214.618 176.245,-216.552Z" style="fill:#fbfbfc;"/><path d="M2609.67,2202.112c86.1,52.415 78.64,-8.101 99.696,-28.603c33.005,-32.137 99.245,19.888 26.528,92.795c-67.39,67.566 -163.999,-2.314 -175.389,-10.552c-53.991,-39.053 -82.196,-45.27 -102.211,7.77c-18.54,49.132 -106.331,15.702 -51.82,-61.337c4.946,-6.99 34.251,-48.405 96.328,-46.675c54.359,1.515 96.624,39.305 106.868,46.602Z" style="fill:#040303;"/></g></svg>