<?xml version="1.0" encoding="UTF-8" standalone="no"?>
<!DOCTYPE svg PUBLIC "-//W3C//DTD SVG 1.1//EN" "http://www.w3.org/Graphics/SVG/1.1/DTD/svg11.dtd">
<svg width="100%" height="100%" viewBox="0 0 710 710" version="1.1" xmlns="http://www.w3.org/2000/svg" xmlns:xlink="http://www.w3.org/1999/xlink" xml:space="preserve" xmlns:serif="http://www.serif.com/" style="fill-rule:evenodd;clip-rule:evenodd;stroke-linejoin:round;stroke-miterlimit:2;">
    <g transform="matrix(0.430556,0,0,0.430556,241.344039,287.805206)">
        <g transform="matrix(1,0,0,1,-1129.654675,-1903.694917)">
            <path d="M1414.352,1910.259C1414.352,1913.519 1412.179,1917.117 1407.833,1921.056C1403.488,1924.994 1398.463,1928.728 1392.759,1932.259C1387.056,1935.79 1381.352,1938.778 1375.648,1941.222C1369.944,1943.667 1365.599,1944.889 1362.611,1944.889C1357.451,1944.889 1352.358,1943.938 1347.333,1942.037C1342.309,1940.136 1337.488,1937.963 1332.87,1935.519C1328.253,1933.074 1323.975,1930.901 1320.037,1929C1316.099,1927.099 1312.772,1926.148 1310.056,1926.148C1306.796,1926.148 1303.062,1927.031 1298.852,1928.796C1294.642,1930.562 1290.636,1932.531 1286.833,1934.704C1283.031,1936.877 1279.772,1938.914 1277.056,1940.815C1274.34,1942.716 1272.981,1943.667 1272.981,1943.667C1267.278,1943.667 1264.426,1940.951 1264.426,1935.519C1264.426,1932.802 1266.599,1929.543 1270.944,1925.741C1275.29,1921.938 1280.383,1918.272 1286.222,1914.741C1292.062,1911.21 1297.901,1908.29 1303.741,1905.981C1309.58,1903.673 1314.13,1902.519 1317.389,1902.519C1322.549,1902.519 1327.167,1903.605 1331.241,1905.778C1335.315,1907.951 1339.253,1910.259 1343.056,1912.704C1346.858,1915.148 1350.728,1917.457 1354.667,1919.63C1358.605,1921.802 1362.883,1922.889 1367.5,1922.889C1370.488,1922.889 1374.019,1921.802 1378.093,1919.63C1382.167,1917.457 1386.105,1915.148 1389.907,1912.704C1393.71,1910.259 1397.105,1907.951 1400.093,1905.778C1403.08,1903.605 1405.117,1902.519 1406.204,1902.519C1408.648,1902.519 1410.685,1903.13 1412.315,1904.352C1413.944,1905.574 1414.623,1907.543 1414.352,1910.259Z" style="fill:rgb(27,40,44);"/>
        </g>
        <g transform="matrix(2.947266,0,0,2.947266,-325.654675,-673.694917)">
            <path d="M9.125,224.478C7.154,272.258 8.988,291.487 44.571,318.396C47.204,320.388 47.689,316.973 51.779,305.593C56.237,293.187 56.915,293.477 59.975,280.609C62.195,271.275 65.726,278.765 66.109,281.567C67.992,295.347 35.81,349.847 32.848,387.526C29.734,427.139 44.472,453.176 62.972,482.193C78.71,506.88 67.786,513.246 62.705,509.229C57.786,505.34 63.852,505.335 64.15,503.457C65.871,492.592 37.957,466.664 27.27,420.555C19.04,385.051 37.423,341.676 40.113,335.327C42.027,330.812 44.113,327.055 42.462,325.538C22.081,306.811 -18.493,295.085 12.732,161.554C17.992,139.063 17.154,129.293 16.912,126.477C16.587,122.688 24.182,119.958 24.314,131.501C24.553,152.356 12.515,180.35 9.125,224.478Z" style="fill:rgb(23,40,44);fill-opacity:0.99;"/>
        </g>
        <g transform="matrix(2.947266,0,0,2.947266,-325.654675,-673.694917)">
            <path d="M267.802,531.221C268.037,531.84 268.448,531.411 268.697,532.069C268.765,532.249 268.725,532.245 269.079,534.451C269.595,535.987 274.026,549.181 271.582,554.545C270.53,556.853 265.54,557.199 264.942,550.463C264.909,550.098 264.654,535.71 262.649,536.863C259.35,538.76 259.622,565.977 251.427,560.586C249.874,559.564 248.921,558.937 254.808,537.593C256.95,529.829 261.051,530.739 259.784,527.402C259.096,525.589 251.661,506.007 248.46,505.964C240.697,505.859 123.977,521.529 119.903,486.465C119.893,486.38 121.657,475.807 126.889,486.303C133.038,498.637 151.88,507.255 247.463,499.108C280.798,496.267 269.612,479.067 273.5,479.128C276.01,479.167 284.219,497.268 263.406,503.189C258.736,504.518 255.993,503.304 257.632,506.44C263.884,518.403 264.253,518.215 267.802,531.221Z" style="fill:rgb(23,40,45);fill-opacity:0.99;"/>
        </g>
        <g transform="matrix(2.947266,0,0,2.947266,-325.654675,-673.694917)">
            <path d="M368.809,482.696C367.891,484.099 361.45,496.321 356.833,491.222C351.878,485.75 364.677,479.65 375.158,457.348C383.566,439.458 417.344,371.925 350.018,275.845C347.103,271.685 346.577,272.053 343.5,272.493C337.753,273.313 344.947,258.661 352.43,267.561C365.141,282.677 395.92,334.463 397.779,380.484C398.009,386.18 402.682,417.603 379.094,465.299C375.198,473.178 373.774,472.318 370.269,480.397C370.183,480.596 370.161,480.567 368.809,482.696Z" style="fill:rgb(23,40,44);fill-opacity:0.96;"/>
        </g>
        <g transform="matrix(2.947266,0,0,2.947266,-325.654675,-673.694917)">
            <path d="M372.278,140.616C354.425,107.69 352.814,108.56 351.973,105.419C351.904,105.159 354.886,97.163 362.086,108.74C397.243,165.272 398.521,192.616 398.793,225.499C398.833,230.346 399.194,274.125 380.358,283.216C371.853,287.321 368.31,276.887 375.54,277.067C377.034,277.104 381.473,277.215 387.015,262.326C392.955,246.367 398.989,189.338 372.278,140.616Z" style="fill:rgb(23,40,45);fill-opacity:0.91;"/>
        </g>
        <g transform="matrix(2.947266,0,0,2.947266,-325.654675,-673.694917)">
            <path d="M373.435,80.035C377.201,78.12 377.152,78.07 377.502,77.967C381.322,76.838 372.718,92.049 362.529,82.47C344.092,65.137 356.578,19.138 349.25,29.258C337.933,44.886 277.657,72.266 275.37,73.046C265.132,76.538 263.093,68.44 268.412,67.19C273.072,66.095 273.262,66.814 282.423,62.336C346.991,30.768 346.988,22.032 348.711,16.563C350.894,9.632 343.755,3.547 350.576,1.939C368.361,-2.254 346.874,77.967 373.435,80.035Z" style="fill:rgb(23,40,45);fill-opacity:0.99;"/>
        </g>
        <g transform="matrix(2.947266,0,0,2.947266,-325.654675,-673.694917)">
            <path d="M252.848,388.453C250.056,363.464 251.337,330.14 256.447,330.699C261.961,331.302 256.631,356.026 259.013,380.537C265.837,450.751 298.174,465.711 310.326,476.692C315.933,481.758 311.983,487.125 306.905,483.052C305.665,482.057 293.221,472.075 291.469,470.536C257.55,440.744 253.987,395.202 252.848,388.453Z" style="fill:rgb(23,40,45);fill-opacity:0.99;"/>
        </g>
        <g transform="matrix(2.947266,0,0,2.947266,-325.654675,-673.694917)">
            <path d="M84.24,87.908C85.524,98.712 52.05,106.018 28.712,75.344C27.973,74.373 24.958,68.301 24.341,71.443C24.333,71.486 26.424,88.152 23.335,103.465C19.801,120.986 14.939,117.786 13.865,117.014C10.407,114.531 17.302,110.508 17.886,89.511C18.149,80.063 19.177,66.213 10.969,51.263C8.58,46.911 2.805,44.617 6.518,40.516C14.942,31.216 29.241,74.688 49.693,85.142C54.285,87.49 72.418,94.64 82.437,89.084L84.24,87.908Z" style="fill:rgb(23,40,45);fill-opacity:0.98;"/>
        </g>
        <g transform="matrix(2.947266,0,0,2.947266,-325.654675,-673.694917)">
            <path d="M142.12,395.422C143.145,390.893 143.104,390.943 144.157,386.424C150.326,359.933 148.491,359.626 149.411,357.458C151.412,352.745 158.565,355.664 154.762,371.559C144.079,416.22 144.547,419.781 133.43,449.473C116.396,494.971 103.667,484.096 103.217,482.605C101.969,478.463 108.66,477.58 109.298,477.178C125.984,466.675 140.564,402.296 142.12,395.422Z" style="fill:rgb(23,40,45);fill-opacity:0.99;"/>
        </g>
        <g transform="matrix(2.947266,0,0,2.947266,-325.654675,-673.694917)">
            <path d="M125.74,540.534C127.037,534.092 126.363,533.944 128.423,530.445C130.536,526.855 126.949,527.405 126.628,527.684C115.7,537.154 117.793,546.506 115.457,548.447C109.331,553.538 106.957,538.605 117.806,526.784C124.579,519.406 125.838,521.747 128.472,522.555C131.54,523.495 135.411,513.784 135.477,513.493C137.656,503.788 141.246,508.97 141.538,509.473C145.826,516.87 134.032,523.729 141.483,523.716C151.623,523.697 155.379,555.895 147.392,551.67C145.535,550.687 144.348,542.381 144.228,541.541C142.755,531.225 141.47,530.01 136.448,531.324C130.284,532.936 135.48,551.885 128.506,551.421C123.227,551.07 125.736,540.572 125.74,540.534Z" style="fill:rgb(23,40,44);fill-opacity:0.98;"/>
        </g>
        <g transform="matrix(2.947266,0,0,2.947266,-325.654675,-673.694917)">
            <path d="M269.281,531.293C272.625,526.008 274.824,529.04 277.967,534.226C289.822,553.781 290.332,554.8 288.625,555.668C281.179,559.45 276.1,543.757 270.62,534.208C270.174,533.237 269.727,532.265 269.281,531.293Z" style="fill:rgb(23,40,45);fill-opacity:0.99;"/>
        </g>
        <g transform="matrix(2.947266,0,0,2.947266,-325.654675,-673.694917)">
            <path d="M267.802,531.221C268.295,531.245 268.788,531.269 269.281,531.293C269.727,532.265 270.174,533.237 270.62,534.208L269.079,534.451C268.725,532.245 268.765,532.249 268.697,532.069C268.448,531.411 268.037,531.84 267.802,531.221Z" style="fill:rgb(22,40,45);fill-opacity:0.73;"/>
        </g>
        <g transform="matrix(2.947266,0,0,2.947266,-325.654675,-673.694917)">
            <path d="M84.24,87.908L82.437,89.084C83.172,88.242 83.168,88.39 84.24,87.908Z" style="fill:rgb(16,28,34);fill-opacity:0.2;"/>
        </g>
        <g id="From-selection" serif:id="From selection" transform="matrix(1,0,0,1,-79.654675,-537.694917)">
            <path d="M233.405,19.085C256.133,13.577 328.643,-6.089 445.401,20.933C457.992,24.367 465.445,26.933 477.376,31.777C479.388,32.744 481.4,33.71 483.412,34.677C485.375,35.745 487.338,36.813 489.3,37.88C497.85,43.07 498.287,42.569 511.26,52.813C511.825,53.282 511.774,53.307 518.247,58.776C538.546,78.155 542.441,88.221 540.006,99.32C539.47,100.528 538.769,110.379 526.706,102.205C524.633,100.8 520.239,95.01 519.73,94.34C519.154,93.511 518.63,92.758 518.149,92.07C513.303,85.128 512.907,84.78 508.775,80.232C507.414,78.916 506.054,77.601 504.694,76.285C499.36,71.565 499.474,71.538 493.851,67.051C490.301,64.459 490.375,64.481 486.778,62.062C484.751,60.755 482.725,59.449 480.698,58.142C479.433,57.44 476.494,54.878 459.698,48.028C455.162,46.38 455.207,46.466 450.652,45.003C433.643,39.244 361.001,23.173 299.494,29.429C291.561,30.236 291.586,29.664 274.47,32.284C251.621,36.222 238.55,38.036 202.534,50.597C193.39,53.952 193.5,53.949 184.469,57.419C170.784,63.061 170.829,62.937 157.308,69.059C144.813,74.566 144.938,74.644 137.35,78.179C134.667,79.473 131.985,80.766 129.302,82.059C118.504,87.264 118.553,87.143 104.4,94.291C76.297,107.501 59.188,118.022 55.407,120.347C53.994,121.232 52.582,122.117 51.169,123.002C33.556,134.115 27.465,139.481 25.292,141.21C24.057,141.967 12.029,149.343 7.247,139.637C2.98,130.978 9.512,125.697 29.781,111.908C30.78,111.243 31.779,110.578 32.778,109.913C41.012,104.434 40.962,104.47 49.424,99.372L51.771,97.952C53.824,96.79 60.898,92.789 77.738,83.982L79.752,82.996C83.364,81.263 83.216,81.107 124.708,60.94C146.746,50.687 146.733,50.729 148.642,49.828L150.337,49.124C162.488,43.97 162.358,43.824 174.618,38.79C186.617,34.095 186.514,34.114 198.568,29.696C215.968,24.025 215.869,24.044 233.405,19.085Z" style="fill:rgb(27,40,44);fill-opacity:0.93;"/>
            <path d="M375.432,6.686C377.318,6.96 377.307,6.95 377.469,6.982C378.049,7.099 377.907,7.216 378.508,7.337C377.483,7.12 376.457,6.903 375.432,6.686Z" style="fill:rgb(18,22,22);fill-opacity:0.04;"/>
        </g>
        <g transform="matrix(1,-0,0,1,-1041.728749,-285.326403)">
            <path d="M1043.279,186.593C1043.822,184.148 1045.384,181.228 1047.964,177.833C1047.964,177.833 1049.081,176.856 1050.018,176.466C1055.184,174.316 1066.908,174.161 1066.908,176C1066.908,177.086 1066.501,178.173 1065.686,179.259C1064.056,181.704 1062.563,183.877 1061.205,185.778C1059.847,187.679 1058.353,191.617 1056.723,197.593C1055.908,200.58 1055.976,204.926 1056.927,210.63C1057.877,216.333 1059.847,222.037 1062.834,227.741C1065.822,233.444 1069.692,238.401 1074.445,242.611C1079.198,246.821 1085.106,248.926 1092.168,248.926C1098.958,248.926 1105.544,246.414 1111.927,241.389C1118.31,236.364 1123.945,229.031 1128.834,219.389C1133.723,209.747 1137.661,198.068 1140.649,184.352C1143.637,170.636 1145.131,155.086 1145.131,137.704C1145.131,117.062 1141.735,99.611 1134.945,85.352C1128.155,71.093 1119.26,59.481 1108.26,50.519C1097.26,41.556 1084.97,35.105 1071.39,31.167C1057.81,27.228 1044.094,25.259 1030.242,25.259C1020.735,25.259 1010.55,26.685 999.686,29.537C988.822,32.389 977.958,36.87 967.094,42.981C956.229,49.093 945.705,56.765 935.519,66C925.334,75.235 916.303,86.235 908.427,99C900.55,111.765 894.303,126.364 889.686,142.796C885.069,159.228 882.76,177.494 882.76,197.593C882.76,226.654 886.698,250.08 894.575,267.87C902.452,285.66 912.501,299.512 924.723,309.426C936.945,319.34 950.594,325.994 965.668,329.389C980.742,332.784 995.612,334.481 1010.279,334.481C1024.402,334.481 1037.507,332.716 1049.594,329.185C1061.68,325.654 1072.544,321.309 1082.186,316.148C1091.828,310.988 1100.044,305.691 1106.834,300.259C1113.624,294.827 1118.921,290.21 1122.723,286.407C1123.538,285.321 1124.489,284.099 1125.575,282.741C1126.661,281.383 1127.748,280.296 1128.834,279.481C1129.921,278.667 1131.075,278.259 1132.297,278.259C1133.519,278.259 1134.81,279.074 1136.168,280.704C1137.797,282.605 1138.748,284.981 1139.019,287.833C1139.291,290.685 1139.223,293.537 1138.816,296.389C1138.408,299.241 1137.661,301.821 1136.575,304.13C1135.489,306.438 1134.402,308 1133.316,308.815C1113.489,324.025 1093.254,334.889 1072.612,341.407C1051.97,347.926 1033.365,351.185 1016.797,351.185C998.328,351.185 979.655,348.605 960.779,343.444C941.902,338.284 924.859,329.389 909.649,316.759C894.439,304.13 882.013,287.358 872.371,266.444C862.729,245.531 857.908,219.321 857.908,187.815C857.908,158.21 862.933,132.204 872.982,109.796C883.032,87.389 895.594,68.716 910.668,53.778C925.742,38.84 941.902,27.636 959.149,20.167C976.396,12.698 992.353,8.963 1007.019,8.963C1028.748,8.963 1049.39,12.086 1068.945,18.333C1088.501,24.58 1105.612,33.475 1120.279,45.019C1134.945,56.562 1146.624,70.549 1155.316,86.981C1164.007,103.414 1168.353,121.815 1168.353,142.185C1168.353,165 1165.297,184.216 1159.186,199.833C1153.075,215.451 1145.606,227.944 1136.779,237.315C1127.952,246.685 1118.513,253.407 1108.464,257.481C1098.415,261.556 1089.452,263.593 1081.575,263.593C1074.513,263.593 1068.198,261.827 1062.631,258.296C1057.063,254.765 1052.445,250.488 1048.779,245.463C1045.52,240.997 1041.094,231.905 1041.094,231.905L1040.427,230.185C1040.427,230.185 1037.575,220.815 1037.575,217.556C1037.575,214.296 1037.643,211.716 1037.779,209.815C1037.915,207.914 1038.186,205.944 1038.594,203.907C1039.001,201.87 1039.612,199.63 1040.427,197.185C1041.242,194.741 1042.192,191.21 1043.279,186.593ZM1064.871,128.741C1067.859,133.901 1069.896,139.673 1070.982,146.056C1072.069,152.438 1072.612,157.531 1072.612,161.333C1072.612,162.42 1072.476,163.778 1072.205,165.407C1071.933,167.037 1071.39,168.667 1070.575,170.296C1069.76,171.926 1068.538,173.284 1066.908,174.37C1065.279,175.457 1054.822,175.321 1053.464,173.963C1052.106,172.605 1051.223,171.043 1050.816,169.278C1050.408,167.512 1050.34,165.679 1050.612,163.778C1050.884,161.877 1051.019,160.383 1051.019,159.296C1051.834,149.247 1051.698,141.167 1050.612,135.056C1049.526,128.944 1047.828,124.191 1045.519,120.796C1043.211,117.401 1040.495,115.093 1037.371,113.87C1034.248,112.648 1031.192,112.037 1028.205,112.037C1023.316,112.037 1018.223,113.327 1012.927,115.907C1007.631,118.488 1002.606,122.562 997.853,128.13C993.1,133.698 988.822,140.691 985.019,149.111C981.217,157.531 978.229,167.58 976.056,179.259C971.711,202.889 971.507,220.815 975.445,233.037C979.384,245.259 987.871,251.37 1000.908,251.37C1007.155,251.37 1012.791,248.79 1017.816,243.63C1022.84,238.469 1027.254,232.494 1031.056,225.704C1034.859,218.914 1039.884,244.309 1036.353,248.926C1032.822,253.543 1028.408,257.346 1023.112,260.333C1017.816,263.321 1011.637,264.815 1004.575,264.815C993.711,264.815 984.612,262.574 977.279,258.093C969.945,253.611 964.174,247.704 959.964,240.37C955.754,233.037 952.97,224.481 951.612,214.704C950.254,204.926 950.254,194.741 951.612,184.148C953.242,170.84 956.229,158.753 960.575,147.889C964.921,137.025 970.149,127.722 976.26,119.981C982.371,112.241 989.026,106.198 996.223,101.852C1003.421,97.506 1010.55,95.333 1017.612,95.333C1022.773,95.333 1027.865,96.556 1032.89,99C1037.915,101.444 1042.532,104.364 1046.742,107.759C1050.952,111.154 1054.618,114.821 1057.742,118.759C1060.865,122.698 1063.242,126.025 1064.871,128.741Z" style="fill:rgb(27,40,44);"/>
        </g>
        <g transform="matrix(1,-0,0,1,-1041.728749,-285.326403)">
            <path d="M1553.76,186.593C1554.303,184.148 1555.865,181.228 1558.445,177.833C1561.026,174.438 1577.39,173.827 1577.39,176C1577.39,177.086 1576.982,178.173 1576.168,179.259C1574.538,181.704 1573.044,183.877 1571.686,185.778C1570.328,187.679 1568.834,191.617 1567.205,197.593C1566.39,200.58 1566.458,204.926 1567.408,210.63C1568.359,216.333 1570.328,222.037 1573.316,227.741C1576.303,233.444 1580.174,238.401 1584.927,242.611C1589.68,246.821 1595.587,248.926 1602.649,248.926C1609.439,248.926 1616.026,246.414 1622.408,241.389C1628.791,236.364 1634.427,229.031 1639.316,219.389C1644.205,209.747 1648.143,198.068 1651.131,184.352C1654.118,170.636 1655.612,155.086 1655.612,137.704C1655.612,117.062 1652.217,99.611 1645.427,85.352C1638.637,71.093 1629.742,59.481 1618.742,50.519C1607.742,41.556 1595.452,35.105 1581.871,31.167C1568.291,27.228 1554.575,25.259 1540.723,25.259C1531.217,25.259 1521.032,26.685 1510.168,29.537C1499.303,32.389 1488.439,36.87 1477.575,42.981C1466.711,49.093 1456.186,56.765 1446.001,66C1435.816,75.235 1426.785,86.235 1418.908,99C1411.032,111.765 1404.785,126.364 1400.168,142.796C1395.55,159.228 1393.242,177.494 1393.242,197.593C1393.242,226.654 1397.18,250.08 1405.056,267.87C1412.933,285.66 1422.982,299.512 1435.205,309.426C1447.427,319.34 1461.075,325.994 1476.149,329.389C1491.223,332.784 1506.094,334.481 1520.76,334.481C1534.884,334.481 1547.989,332.716 1560.075,329.185C1572.161,325.654 1583.026,321.309 1592.668,316.148C1602.31,310.988 1610.526,305.691 1617.316,300.259C1624.106,294.827 1629.402,290.21 1633.205,286.407C1634.019,285.321 1634.97,284.099 1636.056,282.741C1637.143,281.383 1638.229,280.296 1639.316,279.481C1640.402,278.667 1641.556,278.259 1642.779,278.259C1644.001,278.259 1645.291,279.074 1646.649,280.704C1648.279,282.605 1649.229,284.981 1649.501,287.833C1649.773,290.685 1649.705,293.537 1649.297,296.389C1648.89,299.241 1648.143,301.821 1647.056,304.13C1645.97,306.438 1644.884,308 1643.797,308.815C1623.97,324.025 1603.736,334.889 1583.094,341.407C1562.452,347.926 1543.847,351.185 1527.279,351.185C1508.81,351.185 1490.137,348.605 1471.26,343.444C1452.384,338.284 1435.34,329.389 1420.131,316.759C1404.921,304.13 1392.495,287.358 1382.853,266.444C1373.211,245.531 1368.39,219.321 1368.39,187.815C1368.39,158.21 1373.415,132.204 1383.464,109.796C1393.513,87.389 1406.075,68.716 1421.149,53.778C1436.223,38.84 1452.384,27.636 1469.631,20.167C1486.877,12.698 1502.834,8.963 1517.501,8.963C1539.229,8.963 1559.871,12.086 1579.427,18.333C1598.982,24.58 1616.094,33.475 1630.76,45.019C1645.427,56.562 1657.106,70.549 1665.797,86.981C1674.489,103.414 1678.834,121.815 1678.834,142.185C1678.834,165 1675.779,184.216 1669.668,199.833C1663.556,215.451 1656.087,227.944 1647.26,237.315C1638.433,246.685 1628.995,253.407 1618.945,257.481C1608.896,261.556 1599.933,263.593 1592.056,263.593C1584.995,263.593 1578.68,261.827 1573.112,258.296C1567.544,254.765 1562.927,250.488 1559.26,245.463C1555.594,240.438 1552.81,235.346 1550.908,230.185C1549.007,225.025 1548.056,220.815 1548.056,217.556C1548.056,214.296 1548.124,211.716 1548.26,209.815C1548.396,207.914 1548.668,205.944 1549.075,203.907C1549.482,201.87 1550.094,199.63 1550.908,197.185C1551.723,194.741 1552.674,191.21 1553.76,186.593ZM1575.353,128.741C1578.34,133.901 1580.377,139.673 1581.464,146.056C1582.55,152.438 1583.094,157.531 1583.094,161.333C1583.094,162.42 1582.958,163.778 1582.686,165.407C1582.415,167.037 1581.871,168.667 1581.056,170.296C1580.242,171.926 1579.019,173.284 1577.39,174.37C1575.76,175.457 1565.303,175.321 1563.945,173.963C1562.587,172.605 1561.705,171.043 1561.297,169.278C1560.89,167.512 1560.822,165.679 1561.094,163.778C1561.365,161.877 1561.501,160.383 1561.501,159.296C1562.316,149.247 1562.18,141.167 1561.094,135.056C1560.007,128.944 1558.31,124.191 1556.001,120.796C1553.692,117.401 1550.976,115.093 1547.853,113.87C1544.729,112.648 1541.674,112.037 1538.686,112.037C1533.797,112.037 1528.705,113.327 1523.408,115.907C1518.112,118.488 1513.087,122.562 1508.334,128.13C1503.581,133.698 1499.303,140.691 1495.501,149.111C1491.698,157.531 1488.711,167.58 1486.538,179.259C1482.192,202.889 1481.989,220.815 1485.927,233.037C1489.865,245.259 1498.353,251.37 1511.39,251.37C1517.637,251.37 1523.273,248.79 1528.297,243.63C1533.322,238.469 1537.736,232.494 1541.538,225.704C1545.34,218.914 1550.365,244.309 1546.834,248.926C1543.303,253.543 1538.89,257.346 1533.594,260.333C1528.297,263.321 1522.118,264.815 1515.056,264.815C1504.192,264.815 1495.094,262.574 1487.76,258.093C1480.427,253.611 1474.655,247.704 1470.445,240.37C1466.236,233.037 1463.452,224.481 1462.094,214.704C1460.736,204.926 1460.736,194.741 1462.094,184.148C1463.723,170.84 1466.711,158.753 1471.056,147.889C1475.402,137.025 1480.631,127.722 1486.742,119.981C1492.853,112.241 1499.507,106.198 1506.705,101.852C1513.902,97.506 1521.032,95.333 1528.094,95.333C1533.254,95.333 1538.347,96.556 1543.371,99C1548.396,101.444 1553.013,104.364 1557.223,107.759C1561.433,111.154 1565.1,114.821 1568.223,118.759C1571.347,122.698 1573.723,126.025 1575.353,128.741Z" style="fill:rgb(27,40,44);"/>
        </g>
    </g>
</svg>
